<svg id="icons" xmlns="http://www.w3.org/2000/svg" viewBox="0 0 104 104"><defs><linearGradient id="Dégradé_sans_nom_13" x1="-1107.79" y1="2691.64" x2="-1132.6" y2="2666.83" gradientTransform="rotate(90 780.51 1970.18)" gradientUnits="userSpaceOnUse"><stop offset="0" stop-color="#f0b90b"/><stop offset=".28" stop-color="#f1bc0f"/><stop offset=".57" stop-color="#f4c41c"/><stop offset=".86" stop-color="#f8d230"/><stop offset=".99" stop-color="#fbda3c"/></linearGradient><style>.cls-2{fill:#212833}</style></defs><path fill="none" d="M0 0h104v104H0z"/><path class="cls-2" transform="rotate(-45 26.635 63.868)" d="M25.13 62.37h3v3h-3z"/><path class="cls-2" transform="rotate(180 71.04 39)" d="M69.79 37.75h2.5v2.5h-2.5z"/><path class="cls-2" transform="rotate(180 65.63 39)" d="M64.38 37.75h2.5v2.5h-2.5z"/><path class="cls-2" transform="rotate(180 60.22 39)" d="M58.97 37.75h2.5v2.5h-2.5z"/><path class="cls-2" transform="rotate(180 54.815 39)" d="M53.56 37.75h2.5v2.5h-2.5z"/><path class="cls-2" transform="rotate(180 49.405 39)" d="M48.15 37.75h2.5v2.5h-2.5z"/><path class="cls-2" transform="rotate(180 43.995 39)" d="M42.75 37.75h2.5v2.5h-2.5z"/><path class="cls-2" transform="rotate(180 38.585 39)" d="M37.34 37.75h2.5v2.5h-2.5z"/><path class="cls-2" transform="rotate(180 33.18 39)" d="M31.93 37.75h2.5v2.5h-2.5z"/><path class="cls-2" transform="rotate(180 27.77 39)" d="M26.52 37.75h2.5v2.5h-2.5z"/><path class="cls-2" transform="rotate(180 22.36 39)" d="M21.11 37.75h2.5v2.5h-2.5z"/><path class="cls-2" transform="rotate(180 76.45 39)" d="M75.2 37.75h2.5v2.5h-2.5z"/><path class="cls-2" d="M79.85 32.46H21.11V35h58.74a4.14 4.14 0 110 8.28h-58.7v12.13h14v16.94h-14v12.17h34.91V82H23.65v-7.15h14V52.91h-14v-7.17h56.2A6.55 6.55 0 0084 44.28v10.89h2.5V39.1a6.65 6.65 0 00-6.65-6.64z"/><path class="cls-2" transform="rotate(180 16.905 63.87)" d="M15.65 55.39h2.5v16.96h-2.5z"/><path d="M71.46 87A17.55 17.55 0 1189 69.47 17.57 17.57 0 0171.46 87z" fill="url(#Dégradé_sans_nom_13)"/><path d="M71.46 53.42a16 16 0 11-16 16 16.06 16.06 0 0116-16m0-3a19 19 0 1019.05 19 19.07 19.07 0 00-19.05-19z" fill="#fff"/><path class="cls-2" d="M61.7 68.22h19.5v2.5H61.7z"/></svg>