<svg id="图层_1" data-name="图层 1" xmlns="http://www.w3.org/2000/svg" viewBox="0 0 104 104"><defs><linearGradient id="未命名的渐变_3" x1="69.67" y1="1011.47" x2="94.07" y2="987.07" gradientTransform="translate(0 -918.01)" gradientUnits="userSpaceOnUse"><stop offset="0" stop-color="#f0b90b"/><stop offset=".28" stop-color="#f1bc0f"/><stop offset=".57" stop-color="#f4c41c"/><stop offset=".86" stop-color="#f8d230"/><stop offset=".99" stop-color="#fbda3c"/></linearGradient><style>.cls-1{fill:#212833}</style></defs><g id="Icons_light_" data-name="Icons light"><path class="cls-1" d="M82.5 23.6V61H80V24.65L64.62 9.27v14.22h10.56v2.5H62.12V9H22v70.99h39v2.5H19.5v-76h45.89L82.5 23.6z"/><path class="cls-1" d="M56.62 23.5h2.5V26h-2.5zm-5.5 0h2.5V26h-2.5zm-5.5 0h2.5V26h-2.5zm11 19.5h2.5v2.5h-2.5zm-5.5 0h2.5v2.5h-2.5zm11 0h2.5v2.5h-2.5zm5.5 0h2.5v2.5h-2.5zm5.5 0h2.5v2.5h-2.5zm-27.5 0h2.5v2.5h-2.5zm11 19.5h2.5V65h-2.5zm-5.5 0h2.5V65h-2.5zm11 0h2.5V65h-2.5zm5.5 0h2.5V65h-2.5zm-22 0h2.5V65h-2.5z"/><path fill="none" d="M0 0h104v104H0z"/></g><path class="cls-1" d="M40.37 23.5h2.5V26h-2.5zm-5 0h2.5V26h-2.5zm-5.25 0h2.5V26h-2.5zM40.37 43h2.5v2.5h-2.5zm-5 0h2.5v2.5h-2.5zm-5.25 0h2.5v2.5h-2.5zm10.37 19.76h2.5v2.5h-2.5zm-5 0h2.5v2.5h-2.5zm-5.25 0h2.5v2.5h-2.5z"/><circle cx="81.87" cy="81.26" r="17.25" fill="url(#未命名的渐变_3)"/><path class="cls-1" d="M87.88 73.48l1.77 1.77-6.01 6.01 6.01 6.01-1.77 1.77-6.01-6.01-6.01 6.01-1.77-1.77 6.01-6.01-6.01-6.01 1.77-1.77 6.01 6.01 6.01-6.01z"/></svg>