<svg id="图层_1" data-name="图层 1" xmlns="http://www.w3.org/2000/svg" viewBox="0 0 104 104"><defs><linearGradient id="未命名的渐变" x1="-290.19" y1="-2267.04" x2="-290.19" y2="-2232.54" gradientTransform="matrix(.71 .71 .71 -.71 1877.3 -1304.39)" gradientUnits="userSpaceOnUse"><stop offset="0" stop-color="#f0b90b"/><stop offset=".28" stop-color="#f1bc0f"/><stop offset=".57" stop-color="#f4c41c"/><stop offset=".86" stop-color="#f8d230"/><stop offset=".99" stop-color="#fbda3c"/></linearGradient><style>.cls-1{fill:#212833}</style></defs><g id="Icons_light_" data-name="Icons light"><path class="cls-1" d="M57.26 23.5h2.5V26h-2.5zm5.5 0h2.5V26h-2.5zm5.49 0h2.5V26h-2.5zm11.75 0h2.5V26H80zm0 5h2.5V31H80z"/><path class="cls-1" d="M80 23.5h2.5V26H80zm0 10h2.5V36H80zm0 5h2.5V41H80zm0 5h2.5V46H80zm0 5h2.5V51H80zm0 10h2.5V61H80zm0-5h2.5V56H80zm-28.24-30h2.5V26h-2.5zm-5.5 0h2.5V26h-2.5zm11.09-17h2.5V9h-2.5zm-5.41 0h2.5V9h-2.5zm-5.41 0h2.5V9h-2.5zm-5.4 0h2.5V9h-2.5zm-5.41 0h2.5V9h-2.5zm-5.41 0h2.5V9h-2.5zm-5.4 0h2.5V9h-2.5zm-5.41 0H22V9h-2.5zm0 5.25H22v2.5h-2.5zm0 5.25H22v2.5h-2.5zm0 5.25H22v2.5h-2.5zm0 5.25H22V30h-2.5zm0 5.25H22v2.5h-2.5zm0 5.25H22v2.5h-2.5zm0 5.25H22v2.5h-2.5zm0 5.25H22V51h-2.5zm0 5.25H22v2.5h-2.5zm0 5.25H22v2.5h-2.5zm0 5.25H22v2.5h-2.5zm0 5.25H22V72h-2.5zm0 5.25H22v2.5h-2.5zm0 5.25H22v2.5h-2.5zM62.75 6.5h2.5V9h-2.5z"/><path class="cls-1" transform="rotate(-45 69.292 11.038)" d="M68.04 9.78h2.5v2.5h-2.5z"/><path class="cls-1" transform="rotate(-45 73.562 15.31)" d="M72.31 14.06h2.5v2.5h-2.5z"/><path class="cls-1" transform="rotate(-45 77.843 19.586)" d="M76.59 18.34h2.5v2.5h-2.5z"/><path class="cls-1" d="M62.76 12.17h2.5v2.5h-2.5zm-.01 5.67h2.5v2.5h-2.5zM57.26 43h2.5v2.5h-2.5zm-5.5 0h2.5v2.5h-2.5zm11 0h2.5v2.5h-2.5zm5.5 0h2.5v2.5h-2.5zm-22 0h2.5v2.5h-2.5zM30.64 80h2.5v2.5h-2.5zm-5.57 0h2.5v2.5h-2.5zm11.14 0h2.5v2.5h-2.5zm5.58 0h2.5v2.5h-2.5zm5.57 0h2.5v2.5h-2.5zm5.57 0h2.5v2.5h-2.5zm5.57 0H61v2.5h-2.5zm-1.24-17.5h2.5V65h-2.5zm-5.5 0h2.5V65h-2.5zm11 0h2.5V65h-2.5zm-16.5 0h2.5V65h-2.5z"/><path class="cls-1" transform="rotate(-45 39.235 21.258)" d="M37.99 20.01h2.5v2.5h-2.5z"/><path class="cls-1" transform="rotate(-45 35.752 24.751)" d="M34.5 23.5H37V26h-2.5z"/><path class="cls-1" transform="rotate(-45 32.257 28.239)" d="M31.01 26.99h2.5v2.5h-2.5z"/><path class="cls-1" transform="rotate(-45 28.776 24.76)" d="M27.52 23.5h2.5V26h-2.5z"/><path class="cls-1" transform="rotate(-45 39.245 40.764)" d="M37.99 39.51h2.5v2.5h-2.5z"/><path class="cls-1" transform="rotate(-45 35.75 44.252)" d="M34.5 43H37v2.5h-2.5z"/><path class="cls-1" transform="rotate(-45 32.254 47.74)" d="M31.01 46.49h2.5v2.5h-2.5z"/><path class="cls-1" transform="rotate(-45 28.779 44.25)" d="M27.52 43h2.5v2.5h-2.5z"/><path class="cls-1" transform="rotate(-45 39.243 60.265)" d="M37.99 59.01h2.5v2.5h-2.5z"/><path class="cls-1" transform="rotate(-45 35.747 63.753)" d="M34.5 62.5H37V65h-2.5z"/><path class="cls-1" transform="rotate(-45 32.252 67.24)" d="M31.01 65.99h2.5v2.5h-2.5z"/><path class="cls-1" transform="rotate(-45 28.764 63.745)" d="M27.52 62.5h2.5V65h-2.5z"/><path fill="none" d="M0 104V0h104"/><circle cx="81.26" cy="81.25" r="17.25" fill="url(#未命名的渐变)"/><path class="cls-1" d="M81.27 92.06a11.28 11.28 0 01-1.42-.06l.33-2.48a7.89 7.89 0 002.17 0l.34 2.48a11.28 11.28 0 01-1.42.06zM76.6 91a10.94 10.94 0 01-2.36-1.58l1.66-1.87a8.07 8.07 0 001.8 1.2zm9.34 0l-1.1-2.24a8.11 8.11 0 001.8-1.21l1.66 1.85a10.94 10.94 0 01-2.36 1.6zm-13.85-4.21A10.37 10.37 0 0171 84.17l2.42-.64a7.76 7.76 0 00.83 2zm18.36-.01l-2.16-1.26a8.13 8.13 0 00.83-2l2.42.64a10.75 10.75 0 01-1.09 2.62zm-17.29-5.84l-2.5-.15a10.88 10.88 0 01.55-2.79l2.37.8a8.13 8.13 0 00-.42 2.14zm16.21-.01a7.67 7.67 0 00-.37-2.12l2.32-.81a10.88 10.88 0 01.55 2.78zm-9.36-11.04h2.5V82.5h-2.5zM76.34 75a8 8 0 00-.82.72 9.07 9.07 0 00-.72.81l-2-1.53a10.48 10.48 0 01.93-1.07 10.32 10.32 0 011.09-.93zm13.37 0l-2 1.51A8.31 8.31 0 0086.19 75l1.52-2a9.29 9.29 0 011.06.93 9.6 9.6 0 01.94 1.07z"/></g></svg>