<svg fill="none" height="104" viewBox="0 0 104 104" width="104" xmlns="http://www.w3.org/2000/svg" xmlns:xlink="http://www.w3.org/1999/xlink"><linearGradient id="a"><stop offset="0" stop-color="#f0b90b"/><stop offset=".27" stop-color="#f1bc10"/><stop offset=".59" stop-color="#f4c61f"/><stop offset=".94" stop-color="#fad737"/><stop offset=".99" stop-color="#fbda3c"/></linearGradient><linearGradient id="b" gradientUnits="userSpaceOnUse" x1="52.0047" x2="97.975" xlink:href="#a" y1="97.9652" y2="51.9955"/><linearGradient id="c" gradientUnits="userSpaceOnUse" x1="51.9941" x2="116.336" xlink:href="#a" y1="116.331" y2="52.0027"/><path d="m74.9999 29.0001c-10.9639-10.9933-28.1672-12.7094-41.0867-4.0987-12.9195 8.6108-17.956 25.1495-12.0288 39.4996 5.9272 14.3502 21.167 22.5139 36.3972 19.4976 15.2302-3.0164 26.208-16.3725 26.2183-31.8985.0112-8.6236-3.4065-16.8979-9.5-23z" fill="url(#b)"/><path clip-rule="evenodd" d="m50.46 6.50004.08 2.5h2.41v-2.5c-.79-.03-1.65-.03-2.49 0zm5.6.16-.22 2.49c.79.07 1.6.16 2.39.28l.36-2.43c-.84-.17-1.69-.27-2.53-.34zm-11.18.32c.84-.13 1.69-.24 2.53-.32l.25 2.48c-.8.08-1.6.19-2.39.31zm16.72.52-.53 2.44c.78.16996 1.57.35996 2.34.56996l.66-2.40996c-.81-.22-1.65-.42-2.47-.6zm-22.18.75c.81-.24 1.64-.45 2.46-.64l.56 2.43996c-.78.17-1.56.38-2.33.6zm27.58.75-.83 2.35996c.76.26 1.51.55 2.25.85l1-2.29996c-.3865-.14437-.7688-.28875-1.1456-.4311l-.0005-.00017-.0017-.00064-.0011-.00044c-.4312-.16288-.8554-.32311-1.2711-.47765zm-32.85 1.10996c.79-.33996 1.58-.64996 2.37-.93996l.87 2.34996c-.75.27-1.5.57-2.24.88zm38.01 1.06-1.16 2.26c.72.35 1.43.73 2.13 1.13l1.23-2.18c-.1579-.0869-.3194-.177-.4838-.2687l-.003-.0016-.0005-.0003c-.553-.3084-1.1378-.6346-1.7227-.9194zm-43.01 1.45c.74-.42 1.49-.83 2.24-1.22l1.12 2.25c-.71.36-1.42.75-2.11 1.15zm47.85 1.38-1.38 2.09c.6667.44 1.3333.9 2 1.38l1.49-2c-.69-.53-1.4-1.03-2.11-1.47zm-51.8706 1.299v-.0001c.4672-.3409.9439-.6888 1.4206-1.0089l1.44 2.08c-.7.45-1.36.92-2 1.4l-1.51-2c.2137-.1531.4305-.3113.6494-.471zm56.3506 2.061-1.62 1.91c.61.51 1.21 1.05 1.79 1.6l1.73-1.87-.2681-.2375h-.0001c-.5281-.468-1.075-.9525-1.6218-1.4225zm-61.25 2.06c.61-.59 1.24-1.17 1.88-1.72l1.66 1.87c-.6.52-1.2 1.07-1.77 1.63zm65.28 1.83-1.84 1.69c.54.59 1.07 1.2 1.57 1.82l1.94-1.59c-.52-.67-1.08-1.32-1.66-1.94zm-69.04 2.32c.53-.66 1.08-1.31 1.65-1.94l1.86 1.67c-.56.59-1.06 1.21-1.56 1.83zm72.56 2.06-2.03 1.37c.46.65.91 1.32 1.34 2l2.11-1.34c-.1068-.1566-.2148-.3172-.3244-.4803-.3521-.524-.7214-1.0734-1.1256-1.5997zm-74.5788.6548c.0667-.0954.1331-.1904.1988-.2848l2.05 1.44c-.45.64-.9 1.32-1.32 2l-2.13-1.31c.3453-.6215.78-1.243 1.2012-1.8452zm77.5488 4.0452-2.2 1.19c.38.7.75 1.42 1.09 2.15l2.26-1.07c-.35-.76-.74-1.53-1.15-2.27zm-81.4 2.74c.35-.77.73-1.54 1.13-2.29l2.21 1.13c-.37.7-.73 1.43-1.06 2.16zm83.76 2.34-2.36.91c.29.74.57 1.5.82 2.26l2.37-.78c-.19-.8-.51-1.61-.82-2.39zm-85.77 2.89c.25-.81.54-1.62.84-2.41l2.33.88c-.28.75-.54 1.52-.78 2.28zm87.49 2.43-2.43.62c.2.77.38 1.56.53 2.35l2.46-.48c-.16-.83-.35-1.67-.55-2.49zm-88.84 3.01c.16-.83.33-1.67.53-2.5l2.43.59c-.18.78-.35 1.57-.5 2.36zm89.88 2.5-2.48.32c.1.79.18 1.6.24 2.39l2.49-.17c-.05-.85-.13-1.71-.24-2.55zm-90.54 3.07c.05-.85.12-1.7.22-2.54l2.48.29c-.09.79-.16 1.59-.21 2.39zm88.42 2.52v.17c0 .8 0 1.61-.07 2.41l2.5.13c0-.416.0173-.8344.0347-1.2553v-.0002-.0002-.0002-.0001-.0002-.0002-.0002-.0001-.0002-.0002-.0002-.0002-.0002-.0001-.0002-.0002-.0002-.0002-.0002-.0002-.0002-.0002-.0002-.0002-.0002-.0002-.0001-.0002-.0002-.0002-.0002-.0002-.0002-.0003-.0002-.0002-.0002-.0002-.0002-.0002-.0002-.0002-.0003-.0002-.0002-.0002-.0002-.0002-.0003-.0002c.0176-.4257.0353-.854.0353-1.2848v-.13zm-88.5.5h2.5c0 .6883.0361 1.3693.07149 2.037v.0001l.00001.0001c.00626.118.01249.2357.0185.3528l-2.5.16c-.09-.84-.09-1.7-.09-2.55zm88.16 4.92c-.1.8-.22 1.6-.36 2.39l2.46.44c.15-.83.28-1.68.38-2.52zm-87.77.69 2.48-.33h.01c.1.8.23 1.6.38 2.39l-2.47.45c-.16-.83-.29-1.67-.4-2.51zm86.81 4.52c-.19.77-.41 1.55-.65 2.32l2.39.74c.25-.81.48-1.63.69-2.45zm-85.7.98 2.39-.63c.2.77.42 1.55.7 2.31l-2.38.76c-.26-.8-.5-1.63-.71-2.44zm84.1 4.07c-.29.74-.6 1.49-.93 2.22l2.28 1c.34-.78.68-1.57 1-2.35zm-82.42 1.25 2.32-.92.1058.2419c.2852.6526.5739 1.3131.8942 1.9181l-2.32 1.09c-.35-.76-.69-1.55-1-2.33zm80.18 3.56c-.38.7-.78 1.4-1.2 2.09l2.14 1.3c.44-.73.86-1.47 1.26-2.21zm-77.8 1.5 2.19-1.2h.03c.2345.4321.4805.8565.7261 1.2803l.0003.0005v.0001l.0001.0001.0001.0001v.0001l.0001.0001.0001.0001v.0001l.0001.0001v.0001l.0001.0001v.0001l.0001.0001v.0001l.0001.0001c.152.2623.3039.5243.4528.7878l-2.12 1.32c-.45-.71-.88-1.45-1.28-2.19zm75.02 3c-.2381.3365-.4976.6729-.755 1.0065-.2399.311-.4779.6196-.695.9235l2 1.55c.2535-.3157.4933-.6383.7326-.9601.2608-.3509.5209-.7008.7974-1.0399zm-72 1.73 2-1.46h.02c.46.65.95 1.29 1.46 1.91l-1.94 1.55c-.54-.63-1.05-1.31-1.54-2zm68.71 2.45c-.45.5-.92 1-1.39 1.47l-.27.27 1.75 1.78.28-.28c.51-.51 1-1 1.49-1.56zm-65.18 1.93 1.84-1.69v-.05l.001.0011.0048.005.0047.005c.5465.5763 1.0932 1.1528 1.6695 1.7589l-1.74 1.8c-.61-.59-1.21-1.21-1.78-1.83zm60.1797 2.6933-.0001.0001c-.2193.1738-.4394.3484-.6596.5266l1.52 2c.67-.52 1.34-1.06 2-1.61l-1.65-1.9c-.3967.3382-.8019.6595-1.2101.9832h-.0001v.0001zm-56.1397 1.1367 1.62-1.91c.61.51 1.24 1.02 1.89 1.5l-1.51 2c-.69-.51-1.35-1.05-2-1.59zm53.13 1.09c-.67.44-1.35.87-2 1.28l1.22 2.13c.73-.43 1.46-.88 2.16-1.35zm-48.64 2.24 1.37-2.09c.67.46 1.36.88 2.05 1.26l-1.25 2.17c-.73-.43-1.46-.88-2.17-1.34zm44.06.4c-.71.35-1.45.7-2.18 1l1 2.3c.78-.34 1.55-.7 2.31-1.08zm-39.2 2.4 1.11-2.25c.72.36 1.46.69 2.21 1l-1 2.31c-.78-.33-1.56-.69-2.32-1.06zm34.33-.33c-.75.27-1.52.51-2.29.74l.71 2.4c.8-.24 1.62-.5 2.42-.79zm-29.15 2.44.82-2.32c.76.26 1.53.5 2.3.68l-.69 2.4c-.81-.23-1.62-.48-2.43-.76zm24.07-1c-.78.18-1.58.33-2.36.45l.39 2.47c.84-.13 1.68-.29 2.51-.48zm-18.67 2.53.52-2.45v.01c.78.17 1.58.31 2.36.42l-.37 2.47c-.84-.13-1.68-.28-2.51-.45zm13.42-1.7c-.79.07-1.6.13-2.4.16l.1 2.49c.84 0 1.7-.08 2.54-.16zm-7.9 2.49.21-2.49.02.03c.8.07 1.61.14 2.38.11l-.07 2.5c-.84-.03-1.7-.08-2.54-.15z" fill="url(#c)" fill-rule="evenodd"/><g fill="#fff"><path d="m50.5 34.2402h3v27.5h-3z"/><path d="m50.5 66.7402h3v3h-3z"/></g></svg>